<?xml version="1.0" encoding="utf-8"?>
<!-- Generator: Adobe Illustrator 21.0.2, SVG Export Plug-In . SVG Version: 6.00 Build 0)  -->
<svg version="1.1" xmlns="http://www.w3.org/2000/svg" xmlns:xlink="http://www.w3.org/1999/xlink" x="0px" y="0px"
	 viewBox="0 0 2000 775" style="enable-background:new 0 0 2000 775;" xml:space="preserve">
<style type="text/css">
	.st0{fill-rule:evenodd;clip-rule:evenodd;fill:#009FD7;}
	.st1{fill-rule:evenodd;clip-rule:evenodd;fill:#00ADEE;}
	.st2{fill:#DBDBDB;}
	.st3{fill:#333333;}
	.st4{fill-rule:evenodd;clip-rule:evenodd;fill:#CCCCCC;}
	.st5{fill-rule:evenodd;clip-rule:evenodd;fill:#FFFFFF;}
	.st6{fill-rule:evenodd;clip-rule:evenodd;}
	.st7{fill-rule:evenodd;clip-rule:evenodd;fill:#FCFFF8;}
	.st8{fill-rule:evenodd;clip-rule:evenodd;fill:#E3E5E1;}
	.st9{fill:#D1D3CF;}
	.st10{fill-rule:evenodd;clip-rule:evenodd;fill:#DBDBDB;}
	.st11{fill-rule:evenodd;clip-rule:evenodd;fill:#E6D5C2;}
	.st12{fill-rule:evenodd;clip-rule:evenodd;fill:#EBEDE8;}
	.st13{fill-rule:evenodd;clip-rule:evenodd;fill:#003384;}
	.st14{fill-rule:evenodd;clip-rule:evenodd;fill:#187BFF;}
	.st15{fill:#A9998D;}
	.st16{fill-rule:evenodd;clip-rule:evenodd;fill:#AFF8FF;}
	.st17{fill:#B0CEFF;}
	.st18{fill-rule:evenodd;clip-rule:evenodd;fill:#21B9EC;}
	.st19{fill-rule:evenodd;clip-rule:evenodd;fill:#44C7F4;}
	.st20{fill-rule:evenodd;clip-rule:evenodd;fill:#D80000;}
	.st21{fill:#D80000;}
</style>
<g id="sea-behind">
	<path class="st0" d="M2011.4,611.9c-35.4,26.4-85.4-25-130.4-5.3c-14.7,6.4-69.4,37.3-92,26.5c-133.7-63.6-123.3,21-189.6-13.2
		c-90.5-46.6-98.9,49.4-218.7-6.8c-47.8-22.4-97.6,14.4-145.5,15.9c-71.3,2.3-87.1-50.2-137.4-21.6c-18.5,10.5-74.8,16.5-97.8-1
		c-23-17.4-68.4-35.9-123.6,5.4c-35.4,26.4-85.4-25-130.4-5.3c-14.7,6.4-69.4,37.3-92,26.5c-133.7-63.6-123.3,21-189.6-13.2
		c-90.5-46.6-98.9,49.4-218.7-6.8c-47.8-22.4-97.6,14.4-145.5,15.9c-71.3,2.3-87.1-50.2-137.4-21.6c-18.5,10.5-60.2,17.6-82.5,2.8
		c-4.2-2.8-9.6-5.3-15.3-7v222h2270V606.4C2120.5,597.9,2066.6,570.6,2011.4,611.9z"/>
	<path class="st1" d="M1946.3,638.3c-110.9-44.9-90.7,9.1-173.3,9.1c-43.9,0-108.6-41.5-135.5-27.3c-86.2,45.4-107.3,5.4-161.4-2.5
		c-46.5-6.8-87.6,33.2-122.4,29.1c-50.4-6.1-85.8-47.4-147.9-18.8c-53.3,24.7-109,27-162.9,11c-16.6-4.9-27.9-4.6-42.9,4.3
		c-15,8.9-107.4,28-188.7-4.9c-110.9-44.9-90.7,9.1-173.3,9.1c-43.9,0-108.6-41.5-135.5-27.3c-86.2,45.4-107.3,5.4-161.4-2.5
		c-46.5-6.8-87.6,33.2-122.4,29.1c-50.4-6.1-85.8-47.4-147.9-18.8c-53.3,24.7-109,27-162.9,11c-16.6-4.9-26.7-5.5-42.9,4.3v182.5
		h2270V606.4C2095.4,573.8,2027.6,671.1,1946.3,638.3z"/>
</g>
<g id="boat-evel">
	<g id="boat">
		<g id="mast">
			<path class="st2" d="M1037.7,589.6h-12.5l1.1-576.1l-11.9-1.2l0.1-2l11.8-0.1c4.3,0,4.1,0,8.4,0l3.3,579.4H1037.7L1037.7,589.6z"
				/>
			<path class="st3" d="M1038.2,590.7h-13.1c-0.6,0-1.1-0.5-1.1-1.1l0-0.1l1.4-575l-11.1-1.1c-0.6-0.1-1-0.6-1-1.2l0.1-2
				c0-0.6,0.5-1.1,1.1-1.1c5.3,0,10.6-0.1,16-0.1l4.2,0c0.6,0,1.1,0.5,1.1,1.1l3.9,579.4c0,0.6-0.5,1.1-1.1,1.1l0,0H1038.2
				L1038.2,590.7z M1026.2,588.5h11.1l-3.8-577.2c-5.7,0-11.4,0-17.2,0.1l10.2,1c0.6,0.1,1,0.5,1,1.1L1026.2,588.5L1026.2,588.5z"/>
			<polygon class="st3" points="1017.4,10.8 730.7,629.3 727,631.3 1015.1,10.1 1017.4,10.8 			"/>
			<polygon class="st4" points="1025.2,545.8 1018.1,545.8 1018.1,551.1 1025.2,551.1 1025.2,545.8 			"/>
			<path class="st3" d="M1024.1,546.9h-4.9v3.2h4.9V546.9L1024.1,546.9z M1018.1,544.6h7.1c0.6,0,1.1,0.5,1.1,1.1v5.4
				c0,0.6-0.5,1.1-1.1,1.1h-7.1c-0.6,0-1.1-0.5-1.1-1.1v-5.4C1017,545.1,1017.5,544.6,1018.1,544.6L1018.1,544.6z"/>
			<polygon class="st3" points="1026.4,204.7 934.3,581.6 932,581.4 1025.6,200.8 1026.4,204.7 			"/>
		</g>
		<g id="deckhouse">
			<path class="st5" d="M777.4,615.4l1.3-6.2L913,600l7.7-14.6c2.6-4.2,3.8-4.1,8.5-4.1c45.9,0.1,81.1-0.3,127.1,8.3
				c29.8,5.6,58.6,12.7,90.4,22.4C1034,620.3,884,619.7,777.4,615.4L777.4,615.4z"/>
			<path class="st3" d="M776.3,615.2l1.3-6.2c0.1-0.5,0.6-0.9,1.1-0.9l133.6-9.2l7.5-14.2c2.9-4.6,4.2-4.6,9.2-4.6l7.3,0
				c42.6,0.1,76.6,0.1,120.3,8.3c15,2.8,29.6,6,44.5,9.7c14.9,3.7,30.1,7.9,46,12.8c0.6,0.2,0.9,0.8,0.7,1.4c-0.1,0.5-0.5,0.8-1,0.8
				c-52,3.8-112.1,5.8-172.1,6.3c-70,0.7-140-0.6-197.4-2.9c-0.6,0-1.1-0.5-1.1-1.1C776.3,615.3,776.3,615.3,776.3,615.2
				L776.3,615.2z M779.7,610.3l-0.9,4.1c57.1,2.3,126.6,3.5,196,2.8c57.7-0.5,115.3-2.4,166-5.9c-13.8-4.1-27.1-7.8-40.2-11
				c-14.9-3.7-29.5-6.9-44.4-9.6c-43.5-8.1-77.4-8.2-119.9-8.2l-7.3,0c-4,0-5.1,0-7.3,3.6l-7.7,14.6c-0.2,0.3-0.5,0.6-0.9,0.6
				L779.7,610.3L779.7,610.3z"/>
			<path class="st6" d="M964,590.8c12.8,0,49.4-0.8,68.6,4.1c3.5,0.9,7.6,2,10.3,3.4c2.5,1.3,3.5,3.7,0.4,3.7
				c-25.3,0.2-55.2,1-80.5,1.8c-0.8,0-1.6-0.7-1.5-1.5l1.1-10.1C962.6,591.5,963.2,590.8,964,590.8L964,590.8z"/>
			<path class="st3" d="M964,589.7c2.1,0,3.4,0,4.8,0c15.6-0.1,46.8-0.3,64.1,4.2c1.8,0.5,3.7,1,5.5,1.5c1.8,0.6,3.6,1.2,5,1.9
				c1.2,0.6,2.1,1.5,2.6,2.3c0.3,0.5,0.4,1,0.3,1.4c0,0.6-0.3,1.1-0.8,1.4c-0.5,0.4-1.2,0.6-2.3,0.6c-12.1,0.1-25.3,0.3-38.5,0.6
				c-14.4,0.3-28.8,0.7-42,1.2c-0.1,0-0.2,0-0.4,0h0c-0.6-0.1-1.1-0.3-1.6-0.8c-0.4-0.4-0.7-1-0.7-1.6c0-0.1,0-0.2,0-0.3l1.1-10.1
				c0.1-0.7,0.4-1.3,0.8-1.7C962.7,590,963.3,589.7,964,589.7L964,589.7z M968.9,591.9l-4.9,0c-0.1,0-0.2,0-0.2,0.1
				c-0.1,0.1-0.2,0.2-0.2,0.4l-1.1,10.1c0,0,0,0.1,0.1,0.1c0.1,0.1,0.2,0.1,0.2,0.1l0,0c13.2-0.4,27.6-0.8,42-1.2
				c13.2-0.3,26.4-0.5,38.5-0.6c0.4,0,0.7,0,0.8-0.1l-0.1-0.1c-0.3-0.5-0.9-1-1.7-1.4c-1.3-0.7-2.9-1.3-4.7-1.8
				c-1.8-0.6-3.7-1.1-5.4-1.5C1015.4,591.7,984.4,591.8,968.9,591.9L968.9,591.9z"/>
		</g>
		<g id="mainsail">
			<path class="st7" d="M1026.6,545V33.3h-10.8C983.8,83,958.8,140,934.1,193.8C885.2,300.6,840.4,416.9,798.3,545H1026.6
				L1026.6,545z"/>
			<polygon class="st8" points="1015.8,33.1 1026.6,33.8 1026.3,48.5 1009.2,44.2 1015.8,33.1 			"/>
			<path class="st9" d="M844.4,416.4l-2,4.3l86.6,17.9c1.4,0.3,1.7,0.2,1.9-0.7c0-0.2,0.1-0.5,0.2-0.9l0-0.2
				c0.1-0.6,0.2-1.1,0.2-1.5c0-0.3,0-0.6-0.1-0.8c0-0.1-0.1-0.2-0.2-0.3c-0.2-0.1-0.4-0.2-0.8-0.3L844.4,416.4L844.4,416.4z
				 M841.1,420.9l2.7-5.7l86.7,17.9c0.5,0.1,0.9,0.3,1.2,0.5c0.3,0.2,0.5,0.5,0.6,0.8c0.2,0.4,0.2,0.8,0.2,1.3c0,0.4-0.1,1-0.2,1.6
				l0,0.2c-0.1,0.3-0.1,0.6-0.2,0.9c-0.4,1.7-0.8,2-3.2,1.5l-88-18.2L841.1,420.9L841.1,420.9z M885.2,308.5l-1.8,4.4l65.9,14.3
				c1.4,0.3,1.7,0.2,1.9-0.6c0-0.2,0.1-0.5,0.2-0.9l0-0.2c0.1-0.6,0.2-1.1,0.2-1.5c0-0.3,0-0.6-0.1-0.8c0-0.1-0.1-0.2-0.2-0.3
				c-0.1-0.1-0.4-0.2-0.8-0.3L885.2,308.5L885.2,308.5z M882.2,313.1l2.4-5.9l66.2,14.5c0.5,0.1,0.9,0.3,1.2,0.5
				c0.3,0.2,0.5,0.5,0.6,0.8c0.2,0.4,0.2,0.8,0.2,1.3c0,0.4-0.1,1-0.2,1.6l0,0.2c-0.1,0.3-0.1,0.6-0.2,0.9c-0.4,1.7-0.8,2-3.2,1.5
				l-67.2-14.6L882.2,313.1L882.2,313.1z M958.2,142.6l-2,4.3l40.9,8.4c1,0.2,1.7,0.3,2,0.1c0.3-0.2,0.5-0.6,0.6-1.5
				c0.1-0.6,0.2-1.1,0.2-1.5c0-0.4,0-0.7-0.1-0.9c0-0.1-0.1-0.2-0.2-0.3c-0.1-0.1-0.4-0.2-0.8-0.3L958.2,142.6L958.2,142.6z
				 M954.9,147l2.7-5.7l41.5,8.5c0.5,0.1,0.9,0.3,1.2,0.5c0.3,0.2,0.5,0.5,0.6,0.8c0.2,0.4,0.2,0.8,0.2,1.3c0,0.5-0.1,1.1-0.2,1.7
				c-0.2,1.3-0.6,2-1.2,2.3c-0.6,0.3-1.5,0.3-2.8,0l-42.2-8.7L954.9,147L954.9,147z M922.3,224.8l-2,4.3l50.3,9.9
				c1.4,0.3,1.7,0.2,1.9-0.7c0-0.2,0.1-0.5,0.2-0.9l0-0.2c0.1-0.6,0.2-1.1,0.2-1.5c0-0.3,0-0.6-0.1-0.8c0-0.1-0.1-0.2-0.2-0.3
				c-0.1-0.1-0.4-0.2-0.8-0.3L922.3,224.8L922.3,224.8z M919,229.2l2.7-5.7l50.3,9.8c0.5,0.1,0.9,0.3,1.2,0.5
				c0.3,0.2,0.5,0.5,0.6,0.8c0.2,0.4,0.2,0.8,0.2,1.3c0,0.4-0.1,1-0.2,1.6l0,0.2c-0.1,0.3-0.1,0.6-0.2,0.9c-0.4,1.7-0.8,2-3.2,1.5
				l-51.7-10.2L919,229.2L919,229.2z"/>
			<path class="st9" d="M846.2,408.7l181.2,36.5l-0.2,1.1L846,409.7L846.2,408.7L846.2,408.7z M862.1,366.5l164.6,32.7l-0.2,1.1
				l-164.6-32.7L862.1,366.5L862.1,366.5z M974.6,109l53.7,10.8l-0.2,1.1l-53.7-10.8L974.6,109L974.6,109z M934.2,193.2l91.8,16.7
				l-0.2,1.1L934,194.3L934.2,193.2L934.2,193.2z M897.8,276.3l128.1,25.6l-0.2,1.1l-128.1-25.6L897.8,276.3L897.8,276.3z
				 M830.2,451.5l196.5,39.4l-0.2,1.1L830,452.6L830.2,451.5L830.2,451.5z M954.7,151.2l72.1,14.4l-0.2,1.1l-72.1-14.4L954.7,151.2
				L954.7,151.2z M915.6,234.8l110.5,20.9l-0.2,1.1l-110.5-20.9L915.6,234.8L915.6,234.8z M881,319.3l145.5,28.6l-0.2,1.1
				l-145.5-28.6L881,319.3L881,319.3z M814.1,497.7l220.1,42.8l-0.2,1.1l-220.1-42.8L814.1,497.7L814.1,497.7z"/>
			<polygon class="st3" points="800.9,552.1 803.4,551.7 807.8,606.1 805.3,606.6 800.9,552.1 			"/>
			<path class="st3" d="M1025.5,543.9V34.4h-9.1c-28.8,45-52,95.9-74.4,145c-2.3,5-4.5,9.9-6.8,14.8
				c-24.5,53.4-47.9,109.2-70.4,167.6c-22.4,58-43.9,118.5-64.8,182H1025.5L1025.5,543.9z M1027.7,33.3V545c0,0.6-0.5,1.1-1.1,1.1
				H798.3c-0.1,0-0.2,0-0.3-0.1c-0.6-0.2-0.9-0.8-0.7-1.4c21.1-64,42.8-125.1,65.4-183.6c22.6-58.5,46-114.3,70.5-167.7
				c2.3-4.9,4.5-9.9,6.8-14.8c22.5-49.3,45.8-100.5,74.8-145.7c0.2-0.3,0.6-0.6,1-0.6h10.8C1027.2,32.2,1027.7,32.7,1027.7,33.3
				L1027.7,33.3z"/>
			<polygon class="st10" points="795.3,545 1018.1,545 1018.1,551.9 795.3,551.9 795.3,545 			"/>
			<path class="st3" d="M799.1,543.9h219c0.6,0,1.1,0.5,1.1,1.1v8.1c0,0.6-0.5,1.1-1.1,1.1H798.5c-3.8,0-4.7-2.8-4.5-5.4
				C794.1,546.2,795.2,543.9,799.1,543.9L799.1,543.9z M1017,546.1H798.7c-1.9,0-2.5,1.4-2.6,2.8c0,1.5,0.6,3,2.5,3H1017V546.1
				L1017,546.1z"/>
			<path class="st11" d="M1020,38.2c1.2,0,2.1,0.9,2.1,2.1c0,1.2-0.9,2.1-2.1,2.1c-1.2,0-2.1-0.9-2.1-2.1
				C1018,39.2,1018.9,38.2,1020,38.2L1020,38.2z"/>
			<path class="st3" d="M1020,37.8c0.7,0,1.3,0.3,1.7,0.7c0.4,0.4,0.7,1.1,0.7,1.7c0,0.7-0.3,1.3-0.7,1.7l0,0
				c-0.4,0.4-1.1,0.7-1.7,0.7c-0.7,0-1.3-0.3-1.7-0.7l0,0c-0.4-0.4-0.7-1.1-0.7-1.7c0-0.7,0.3-1.3,0.7-1.8
				C1018.7,38.1,1019.4,37.8,1020,37.8L1020,37.8z M1021.2,39.1c-0.3-0.3-0.7-0.5-1.2-0.5c-0.5,0-0.9,0.2-1.2,0.5
				c-0.3,0.3-0.5,0.7-0.5,1.2c0,0.5,0.2,0.9,0.5,1.2l0,0c0.3,0.3,0.7,0.5,1.2,0.5c0.5,0,0.9-0.2,1.2-0.5c0.3-0.3,0.5-0.7,0.5-1.2
				C1021.7,39.8,1021.6,39.4,1021.2,39.1L1021.2,39.1z"/>
			<polygon class="st3" points="1025.9,14.6 1021.4,39.8 1020.3,39.6 1024.8,14.4 1025.9,14.6 			"/>
			<polygon class="st9" points="1010.4,43.9 1025.5,47.9 1025.5,49.2 1009.9,44.7 1010.4,43.9 			"/>
			<path class="st12" d="M844.1,415.8l-2.5,5.3l87.3,18.1c2.3,0.5,2.3,0,2.7-2.1c0.2-1.2,0.3-2,0.1-2.5c-0.2-0.4-0.5-0.7-1.4-0.9
				L844.1,415.8L844.1,415.8z M884.9,307.9l-2.2,5.5l66.6,14.4c2.3,0.5,2.3,0,2.7-2.1c0.2-1.2,0.3-2,0.1-2.5
				c-0.2-0.4-0.5-0.7-1.4-0.9L884.9,307.9L884.9,307.9z M957.9,141.9l-2.5,5.3l41.5,8.5c2.3,0.5,2.9,0.3,3.3-1.8
				c0.2-1.2,0.3-2.2,0.1-2.7c-0.2-0.4-0.5-0.7-1.4-0.9L957.9,141.9L957.9,141.9z M922,224.1l-2.5,5.3l51,10c2.3,0.5,2.3,0,2.7-2.1
				c0.2-1.2,0.3-2,0.1-2.5c-0.2-0.4-0.5-0.7-1.4-0.9L922,224.1L922,224.1z"/>
		</g>
		<g id="jib">
			<path class="st7" d="M1010.2,575.2c35.7-137.6,54-323,45.3-440.7c38.5,123.7,98.4,329.3,136.9,453
				C1141.5,585.8,1057.2,578.1,1010.2,575.2L1010.2,575.2z"/>
			<path class="st9" d="M1037.6,440.3c17.8-0.9,35.6-2.1,53.4-3.7c17.8-1.6,35.7-3.4,53.4-5.7l0.1,1.1c-17.9,2.3-35.7,4.1-53.5,5.7
				c-17.8,1.6-35.6,2.8-53.5,3.7L1037.6,440.3L1037.6,440.3z M1010.5,574.8l40.5-38.6l-31.4,0.9l0-1.1l32.7-0.9l56.1-53.5
				c-12.2,2-24.7,3.6-37.4,4.6c-13.4,1.1-27.1,1.6-41.2,1.6l0-1.1c14,0.1,27.8-0.5,41.1-1.6c13.3-1.1,26.3-2.7,39-4.9l38.7-36.9
				l0.8,0.8l-38.7,36.9c-2.8,16.5-5.6,33.2-8.3,50c-2.8,16.9-5.6,33.8-8.4,50.2l-1.1-0.2c2.8-16.6,5.6-33.4,8.4-50.2
				c2.7-16.3,5.4-32.7,8.1-48.5l-56.3,53.6l-11.4,40.7l-1.1-0.3l10.9-38.9l-40.1,38.2L1010.5,574.8L1010.5,574.8z M1139.6,584.6
				l17.5-111.6l1.1,0.2l-17.5,111.6L1139.6,584.6L1139.6,584.6z M1045.8,390.6c7.9-0.6,15.6-1.2,23.2-1.7
				c20.7-1.5,40.7-2.9,62.2-5.8l0.1,1.1c-21.5,2.9-41.5,4.3-62.2,5.8c-7.6,0.5-15.2,1.1-23.2,1.7L1045.8,390.6L1045.8,390.6z
				 M1058.1,208.4c3.1-0.4,6.4-0.7,9.8-1.1c3.4-0.3,6.9-0.6,10.5-0.9l0.1,1.1c-3.7,0.3-7.2,0.6-10.5,0.9c-3.3,0.3-6.6,0.7-9.8,1.1
				L1058.1,208.4L1058.1,208.4z M1054.2,298.3c8.5-0.1,17-0.4,25.4-1.1c8.4-0.6,16.8-1.6,25.1-2.9l0.2,1.1
				c-8.3,1.3-16.7,2.3-25.2,2.9c-8.4,0.6-16.9,1-25.5,1.1L1054.2,298.3L1054.2,298.3z M1057.7,163.6l7.6-0.6l0.1,1.1l-7.6,0.6
				L1057.7,163.6L1057.7,163.6z M1056.9,253.4c11.7-0.8,22.2-1.8,32-2.8l2.7-0.3l0.1,1.1l-2.7,0.3c-9.8,1-20.3,2.1-32.1,2.9
				L1056.9,253.4L1056.9,253.4z M1050.1,343.7l67.7-5.3l0.1,1.1l-67.7,5.3L1050.1,343.7L1050.1,343.7z"/>
			<path class="st3" d="M1009.2,574.8c17.7-68.2,31.1-148.1,39.1-225.8c8.1-78.9,10.6-155.3,6.2-214.5c0-0.6-0.6-5.4,0-5.4
				c0.5,0,2.1,4.5,2.2,5l136.6,452.9c0.2,0.6,0.2,1.3-0.4,1.4c-0.1,0-0.3,0.1-0.4,0c-32.8-1-79.3-4.6-120.8-7.8
				c-23.1-1.8-44.7-3.4-61.4-4.5c-0.6,0-1.1-0.6-1-1.2C1009.1,575,1009.1,574.9,1009.2,574.8L1009.2,574.8z M1050.4,349.3
				c-7.9,77.3-21.3,156.8-38.8,224.8c16.7,1,37.7,2.7,60.1,4.4c40.9,3.1,86.6,6.7,119.2,7.8c-46-147.9-87.7-297.2-133.6-445
				C1060.9,199.2,1058.1,274.4,1050.4,349.3L1050.4,349.3z"/>
			<polygon class="st3" points="1010.6,576.2 918.4,613.2 918.3,611.4 1009.9,574.2 1010.6,576.2 			"/>
			<polygon class="st3" points="1195,600 1034.6,66.9 1036.1,62.5 1196.9,599.4 1195,600 			"/>
		</g>
		<g id="lifeline">
			<path class="st3" d="M855.4,588.3l1.5,24.4c0.1,1.2-0.8,2.2-2,2.3l-1.3,0.1c-0.1,0-0.2,0-0.3,0l-0.7,0c-1.2,0-2.2-0.9-2.3-2.1h0
				l-1.5-24.4c-0.1-1.2,0.8-2.3,2-2.3l2.2-0.2c1.2-0.1,2.3,0.8,2.4,2L855.4,588.3L855.4,588.3z M1192.2,598.9l3-17.6
				c-2.7,0.1-5.6,0.3-8.6,0.4c-3.5,0.2-7.1,0.4-10.6,0.5c-1.4,0.1-2.3,0.1-2.9,0.4c-0.4,0.2-0.8,0.7-1.3,1.7l-6.4,17.5
				c-0.3,0.9-1.1,1.4-2,1.5l-2.4,0.1c-1.2,0.1-2.3-0.9-2.3-2.1c0-0.3,0-0.6,0.1-0.9l6.8-18.7c0-0.1,0.1-0.2,0.1-0.2
				c1.3-2.7,2.6-4.1,4.3-4.9c1.6-0.8,3.3-0.9,5.6-1c3.3-0.2,6.9-0.3,10.6-0.5c3-0.2,6-0.3,9-0.5c1.1-0.1,1.9-0.1,2.7,0
				c1.1,0.2,2,0.5,2.7,1.3c0.8,0.8,1.2,1.7,1.3,2.9c0.1,0.9,0,1.9-0.2,3.2l0,0h0l-3,17.4c-0.2,1.1-1.1,1.8-2.2,1.8l-2.2,0.1
				c-1.2,0.1-2.3-0.9-2.3-2.1C1192.2,599.3,1192.2,599.1,1192.2,598.9L1192.2,598.9z M1059.4,582.1l1.5,24c0.1,1.2-0.9,2.3-2.1,2.3
				l-2.3,0.1c-1.2,0.1-2.2-0.9-2.3-2.1l-1.5-24.1c-0.1-1.2,0.8-2.3,2-2.3l2.2-0.2c1.2-0.1,2.3,0.8,2.4,2L1059.4,582.1L1059.4,582.1z
				 M952.7,585.8l1.5,24.4c0.1,1.2-0.8,2.3-2,2.3l-0.4,0c-0.1,0-0.2,0-0.2,0l-1.7,0.1c-1.2,0-2.2-0.9-2.3-2.1l-1.5-24.4
				c-0.1-1.2,0.8-2.3,2-2.3l2.2-0.2c1.2-0.1,2.3,0.8,2.4,2L952.7,585.8L952.7,585.8z M744.7,597.8l3.4,16.6c0,0.1,0,0.3,0,0.4
				c0,1.2-1,2.2-2.2,2.2l-2.1,0c-1.1,0.1-2.1-0.7-2.3-1.8l-3.5-16.6l0-0.1c-0.1-0.7-0.1-1.3-0.1-1.9c0.1-1.5,0.5-2.9,1.4-4.1
				c0.9-1.2,2.2-2,3.9-2.3c0.4-0.1,0.9-0.1,1.4-0.1l10-0.4c0.1,0,0.2,0,0.2,0c2.3,0.1,4,0.2,5.6,1c1.7,0.8,2.9,2.2,4.2,4.8
				c0.1,0.1,0.1,0.2,0.1,0.3l6.6,17.9l0,0c0.1,0.2,0.1,0.5,0.1,0.7c0,1.2-1,2.2-2.2,2.2l-2.2,0c-1,0.1-1.9-0.5-2.3-1.4l-6.2-16.8
				c-0.5-1-0.9-1.5-1.3-1.7c-0.5-0.2-1.5-0.3-2.8-0.4l-9.8,0.4c0,0.1-0.1,0.3-0.1,0.5C744.7,597.5,744.7,597.7,744.7,597.8
				L744.7,597.8z"/>
			<g>
				<polygon class="st3" points="1168,580.9 762.1,594.3 762,592.1 1167.9,578.7 1168,580.9 				"/>
				<path class="st10" d="M853.2,588.4l1.5,24.5l-1.3,0.1l-0.9,0l-1.5-24.4L853.2,588.4L853.2,588.4z M1194.4,599.3l3.1-17.9
					c0.2-1.4,0.3-2.1,0.1-2.3c-0.2-0.2-0.9-0.1-2.1-0.1c-6.3,0.3-13.2,0.7-19.6,1c-3.2,0.1-4.6,0.2-6.2,3.4l-6.4,17.6l-2.4,0.1
					l6.8-18.7c2.1-4.3,3.9-4.4,8-4.6c6.3-0.3,13.2-0.7,19.6-1c1.8-0.1,3-0.1,3.8,0.7c0.8,0.8,0.9,2,0.5,4.2l-3,17.4L1194.4,599.3
					L1194.4,599.3z M1057.1,582.1l1.5,24.1l-2.2,0.1l-1.5-24.1L1057.1,582.1L1057.1,582.1z M950.5,585.8l1.5,24.5l-0.4,0l-1.8,0.1
					l-1.5-24.4L950.5,585.8L950.5,585.8z M745.9,614.8l-3.4-16.7c-0.2-1.5,0.3-3.6,1.9-3.5l10.2-0.4c3.2,0.1,4.6,0.2,6.2,3.4
					l6.2,16.9l2.3,0l-6.6-17.9c-2.1-4.3-3.9-4.4-8-4.6l-10.2,0.4c-3.3-0.2-4.9,2.6-4.3,5.8l3.5,16.6L745.9,614.8L745.9,614.8z"/>
			</g>
		</g>
		<g id="hull">
			<path class="st13" d="M732,630.4h22.4c2.4,0,4.6,2,4.2,4.3l-8.9,54c-0.4,2.4-2,4.3-4.4,4.3h-14.7c-2.4,0-4.3-2-4.2-4.3l1.2-54
				C727.6,632.4,729.6,630.4,732,630.4L732,630.4z"/>
			<path class="st3" d="M732,629.3h22.4c0.3,0,0.6,0,0.9,0.1c1.2,0.2,2.3,0.8,3.1,1.6c0.8,0.9,1.4,2,1.4,3.2h0c0,0.2,0,0.5-0.1,0.7
				l-8.9,54c-0.2,1.5-0.9,2.8-1.9,3.8c-1,0.9-2.2,1.5-3.6,1.5h-14.7l-0.1,0c-1.5,0-2.8-0.6-3.7-1.6c-0.9-1-1.5-2.3-1.5-3.7
				c0-17.9,0.8-36.2,1.2-54.1c0-1.5,0.7-2.8,1.7-3.8C729.1,629.9,730.5,629.3,732,629.3L732,629.3z M754.4,631.5H732
				c-0.9,0-1.7,0.4-2.3,1c-0.6,0.6-1,1.4-1,2.3l-1.2,54.1c0,0.8,0.3,1.6,0.9,2.2c0.6,0.6,1.3,0.9,2.2,0.9l14.7,0
				c0.8,0,1.5-0.3,2.1-0.9c0.6-0.6,1.1-1.5,1.2-2.5l8.9-54c0-0.1,0-0.2,0-0.4h0c0-0.6-0.3-1.2-0.7-1.7c-0.5-0.5-1.2-0.8-1.9-1
				C754.8,631.6,754.6,631.5,754.4,631.5L754.4,631.5z"/>
			<path class="st13" d="M947.2,756.4l0-0.7l7.4-95.3h76.6l-16.4,90.8c-0.2,1.1-0.3,2.2-0.3,3.4c14.8,2.5,7.8,10.5-10.9,10.5
				c-27.5,0-72.3-2.5-72.3-5.6C931.4,758.3,937.9,757.3,947.2,756.4L947.2,756.4z"/>
			<path d="M948.2,755.8l-0.1,1.5l-0.8,0.1c-4.8,0.5-8.9,0.9-11.7,1.5c-2,0.4-3.2,0.5-3.2,0.6c0,0.8,8.9,1.8,21.1,2.7
				c15.2,1.2,35.3,1.9,50.2,1.9c7.9,0,13.7-1.4,16.4-3.3c0.8-0.5,1.3-1.1,1.4-1.5c0.1-0.4,0-0.7-0.3-1.1c-0.9-1-3.1-2-6.8-2.6
				l-0.8-0.1l0-0.8c0-0.6,0-1.2,0.1-1.8c0.1-0.6,0.1-1.2,0.2-1.7l16.2-89.7h-74.6L948.2,755.8L948.2,755.8z M946.2,755.5l7.5-96.1
				h78.7l-16.6,91.9c-0.1,0.5-0.2,1.1-0.2,1.6c0,0.3,0,0.5-0.1,0.8c3.7,0.7,6.1,1.8,7.2,3.1c0.8,0.9,1,2,0.7,3
				c-0.3,0.9-1.1,1.8-2.2,2.5c-3,2-9.1,3.6-17.5,3.6c-15,0-35.1-0.7-50.4-1.9c-13.2-1-22.9-2.6-22.9-4.7c0-1.1,1.7-1.9,4.8-2.5
				C937.9,756.4,941.7,756,946.2,755.5L946.2,755.5z"/>
			<path class="st5" d="M774.2,654.7c-14.8-3.7-44.1-7.4-58.9-11.1l27.9-27.6c153.6-1.9,294.5-6.4,454.1-15.7l-8.9,54.4
				C1068.1,674.4,939.3,683.6,774.2,654.7L774.2,654.7z"/>
			<path class="st13" d="M774.2,654.7c-5.7-1.4-13.5-2.9-21.9-4.3h436.9l-0.7,4.3C1068.1,674.4,939.3,683.6,774.2,654.7L774.2,654.7
				z"/>
			<path class="st14" d="M762.4,652.1c-5.6-0.7-11.7-1.3-17.8-2h445.9c-0.7,0.7-1.4,1.3-2.2,2H762.4L762.4,652.1z"/>
			<path class="st15" d="M737.1,621.9c76.7,0,153.1-1.4,229.5-3.8c76.4-2.4,152.9-5.8,230-9.7l0.1,2.2c-77.1,3.8-153.6,7.2-230,9.7
				c-76.4,2.4-152.7,3.9-229.5,3.8V621.9L737.1,621.9z"/>
			<path class="st3" d="M773.9,655.7c-7.4-1.8-18.3-3.7-29.3-5.5c-11-1.9-22.1-3.7-29.5-5.6c-0.6-0.1-1-0.8-0.8-1.3
				c0.1-0.2,0.2-0.4,0.3-0.6l27.9-27.6c0.2-0.2,0.5-0.3,0.8-0.3c76.8-1,150.4-2.6,224.7-5.1c74.3-2.5,149.4-6,229.3-10.6
				c0.6,0,1.1,0.4,1.2,1c0,0.1,0,0.2,0,0.3l-8.9,54.4c-0.1,0.5-0.5,0.9-0.9,0.9c-60.2,9.9-122.6,17.1-190.5,18.3
				c-68,1.2-141.5-3.8-224.1-18.3L773.9,655.7L773.9,655.7z M745,648c11,1.9,22,3.7,29.5,5.6c82.5,14.5,155.8,19.4,223.6,18.2
				c67.5-1.1,129.5-8.3,189.5-18.1l8.5-52.3c-79.3,4.6-154,8-228,10.5c-74.2,2.5-147.7,4.1-224.4,5.1L717.6,643
				C724.8,644.7,734.9,646.3,745,648L745,648z"/>
			<path d="M946.2,756.2c7.9-0.8,18-1.4,28-1.9c11.3-0.5,22.2-0.8,29.5-0.8c2.1,0,3.9,0.1,5.7,0.2c1.8,0.1,3.4,0.3,4.8,0.5l-0.2,1
				c-1.4-0.2-3-0.4-4.7-0.5c-1.7-0.1-3.5-0.2-5.6-0.2c-7.3,0-18.2,0.3-29.4,0.8c-9.9,0.5-20,1.1-27.9,1.9L946.2,756.2L946.2,756.2z"
				/>
		</g>
		<g id="spinnaker">
			<path class="st16" d="M1281.4,564.3c-7-22.7-100-29.2-218.6-8.2c79.7-158.1,102.6-293.4-18-485C1260,128,1296,355.9,1281.4,564.3
				L1281.4,564.3z"/>
			<path class="st3" d="M1280.3,564.6c-3.5-11.2-29.6-18.3-70.1-19.8c-38.5-1.4-89.8,2.3-147.2,12.5c-0.6,0.1-1.2-0.3-1.3-0.9
				c0-0.3,0-0.5,0.1-0.8c39.8-78.9,65.3-152.1,66-229.4c0.6-77.3-23.8-158.8-83.9-254.4c-0.3-0.5-0.2-1.2,0.4-1.6
				c0.3-0.2,0.6-0.2,0.9-0.1c108,28.6,171,100,205.2,190.5c34.1,90.3,39.5,199.5,32.2,303.8c0,0.6-0.6,1.1-1.2,1.1
				C1280.8,565.4,1280.4,565,1280.3,564.6L1280.3,564.6z M1210.3,542.5c37.2,1.4,62.6,7.7,70.3,17.7c6.9-102.8,1.3-210.1-32.3-298.9
				c-33.6-89-95.4-159.5-200.8-188.3c59.2,94.9,83.3,176.1,82.7,253.2c-0.6,77.1-25.9,150-65.2,228.4
				C1121.5,544.7,1172.1,541.1,1210.3,542.5L1210.3,542.5z"/>
			<path class="st17" d="M1112,438.4c35.1-7.7,65.9-10.6,93.9-9.7c28,0.9,53.3,5.6,77.3,13.1l-0.3,0.9c-23.9-7.5-49.1-12.1-77-13
				c-27.9-0.9-58.7,2-93.7,9.7L1112,438.4L1112,438.4z M1078.4,127.2c8.9-4.9,18.7-8.2,28.9-10.2c11.1-2.2,22.7-2.8,33.8-2.1l-0.1,1
				c-11.1-0.7-22.5-0.1-33.6,2.1c-10.1,2-19.8,5.3-28.6,10.1L1078.4,127.2L1078.4,127.2z M1111.4,207.3c19.2-8.5,38-12.8,55.6-14.5
				c17.7-1.6,34.2-0.6,49.2,1.7l-0.1,1c-14.9-2.3-31.4-3.3-48.9-1.7c-17.6,1.6-36.2,5.9-55.3,14.4L1111.4,207.3L1111.4,207.3z
				 M1130.7,313.8c25.1-5.5,49.1-7.9,71.5-8.3c22.4-0.4,43.4,1.3,62.5,4l-0.1,1c-19.1-2.7-40-4.4-62.3-4
				c-22.4,0.4-46.3,2.8-71.3,8.3L1130.7,313.8L1130.7,313.8z"/>
			<polygon class="st3" points="1063.4,556.7 938.4,581.6 938.1,579.7 1063,554.8 1063.4,556.7 			"/>
			<polygon class="st3" points="1257.5,574.5 1202.1,581.8 1201.8,579.9 1257.2,572.6 1257.5,574.5 			"/>
			<path class="st16" d="M1281.3,564l0.1,0.6c-0.2,4.3-9.2,7.1-23.5,8.8c1.9-6.9-10.8-20.4-21.1-27.7
				C1262.2,548.9,1278.3,555.2,1281.3,564L1281.3,564z"/>
			<path class="st3" d="M1282.4,563.9l0.1,0.7l0,0.1c-0.1,2.7-2.7,4.8-7.2,6.4c-4.1,1.5-10,2.6-17.3,3.5l-1.7,0.2l0.5-1.7
				c0.8-2.7-1.2-6.8-4.5-11.1c-4.2-5.5-10.5-11.4-16.1-15.4l-3.7-2.6l4.5,0.6c12.9,1.6,23.5,4.1,31.2,7.2
				c7.8,3.2,12.7,7.2,14.3,11.8l0,0.1L1282.4,563.9L1282.4,563.9z M1280.2,564.6l0-0.4c-1.4-4-5.9-7.4-12.9-10.3
				c-6.6-2.7-15.5-4.9-26.3-6.5c4.7,3.8,9.6,8.6,13.1,13.2c3.1,4.1,5.2,8.2,5.1,11.4c6.4-0.8,11.6-1.9,15.3-3.2
				C1278,567.6,1280,566.2,1280.2,564.6L1280.2,564.6z"/>
			<polygon class="st3" points="1044.7,72.5 1034.4,63.6 1035.6,61.4 1046,70.4 1044.7,72.5 			"/>
		</g>
	</g>
</g>
<g id="sea-front">
	<path class="st18" d="M2133.2,653.8c-70.4-58.3-84.2,6.5-130-16c-26.1-12.9-59.5-18.3-83.5-1.4c-44.1,31.2-71.6,34.6-111.6-1.1
		c-77.1-68.9-96.9,67.2-210.2,3.8c-85.4-47.8-123.1,38-176.3,20.1c-119.5-40.1-163.3,31.6-243.5-12.5
		c-86.4-47.6-144.1,87.3-309.9-8.9c-26.1-12.9-59.5-18.3-83.5-1.4c-44.1,31.2-71.6,34.6-111.6-1.1c-77.1-68.9-96.9,67.2-210.2,3.8
		c-85.4-47.8-123.1,38-176.3,20.1c-119.5-40.1-163.3,31.6-243.5-12.5c-86.4-47.6-99,30.2-178.1,41.2v138h1135h1135V655.1
		C2134.3,654.6,2133.6,654.2,2133.2,653.8z"/>
	<path class="st19" d="M2119.7,673.6c-22.3,13.1-64.1,6.8-82.5-2.5c-50.3-25.4-66.1,21.3-137.4,19.2c-48-1.4-97.8-34.1-145.5-14.2
		c-119.8,50-128.2-35.4-218.7,6.1c-66.3,30.4-71.7-26.6-189.6,11.7c-23.6,7.7-79.1-6.2-93.8-11.9c-45-17.5-84.2,28.5-128.6,14.9
		c-82.5-25.2-123.6,35.1-221.5-25.8c-50.3-25.4-66.1,21.3-137.3,19.2c-48-1.4-97.8-34.1-145.5-14.2c-119.8,50-128.2-35.4-218.7,6.1
		c-66.3,30.4-71.7-26.6-189.6,11.7c-23.6,7.7-79.1-6.2-93.8-11.9c-45-17.5-84.2,28.5-128.6,14.9c-82.5-25.2-109.1-4-123.6,3.6v125.3
		h1135h1135V667.4C2129.3,668.9,2123.9,671.1,2119.7,673.6z"/>
</g>
<g id="interaction-points">
	<g id="spinnaker-interaction-point">
		<circle class="st20" cx="1229.5" cy="214.5" r="6"/>
		<g>
			<path class="st21" d="M1229.5,227c-6.9,0-12.5-5.6-12.5-12.5s5.6-12.5,12.5-12.5s12.5,5.6,12.5,12.5S1236.4,227,1229.5,227z
				 M1229.5,206c-4.7,0-8.5,3.8-8.5,8.5s3.8,8.5,8.5,8.5s8.5-3.8,8.5-8.5S1234.2,206,1229.5,206z"/>
		</g>
	</g>
	<g id="mast-interaction-point">
		<circle class="st20" cx="1039.5" cy="40.5" r="6"/>
		<g>
			<path class="st21" d="M1039.5,53c-6.9,0-12.5-5.6-12.5-12.5s5.6-12.5,12.5-12.5s12.5,5.6,12.5,12.5S1046.4,53,1039.5,53z
				 M1039.5,32c-4.7,0-8.5,3.8-8.5,8.5s3.8,8.5,8.5,8.5s8.5-3.8,8.5-8.5S1044.2,32,1039.5,32z"/>
		</g>
	</g>
	<g id="hull-interaction-point">
		<circle class="st20" cx="1192.5" cy="629.5" r="6"/>
		<g>
			<path class="st21" d="M1192.5,642c-6.9,0-12.5-5.6-12.5-12.5s5.6-12.5,12.5-12.5s12.5,5.6,12.5,12.5S1199.4,642,1192.5,642z
				 M1192.5,621c-4.7,0-8.5,3.8-8.5,8.5s3.8,8.5,8.5,8.5s8.5-3.8,8.5-8.5S1197.2,621,1192.5,621z"/>
		</g>
	</g>
	<g id="keel-interaction-point">
		<circle class="st20" cx="1019.5" cy="725.5" r="6"/>
		<g>
			<path class="st21" d="M1019.5,738c-6.9,0-12.5-5.6-12.5-12.5s5.6-12.5,12.5-12.5s12.5,5.6,12.5,12.5S1026.4,738,1019.5,738z
				 M1019.5,717c-4.7,0-8.5,3.8-8.5,8.5s3.8,8.5,8.5,8.5c4.7,0,8.5-3.8,8.5-8.5S1024.2,717,1019.5,717z"/>
		</g>
	</g>
	<g id="rudder-interaction-point">
		<circle class="st20" cx="725.5" cy="673.5" r="6"/>
		<g>
			<path class="st21" d="M725.5,686c-6.9,0-12.5-5.6-12.5-12.5s5.6-12.5,12.5-12.5c6.9,0,12.5,5.6,12.5,12.5S732.4,686,725.5,686z
				 M725.5,665c-4.7,0-8.5,3.8-8.5,8.5s3.8,8.5,8.5,8.5c4.7,0,8.5-3.8,8.5-8.5S730.2,665,725.5,665z"/>
		</g>
	</g>
	<g id="trail-interaction-point">
		<circle class="st20" cx="599.5" cy="642.5" r="6"/>
		<g>
			<path class="st21" d="M599.5,655c-6.9,0-12.5-5.6-12.5-12.5s5.6-12.5,12.5-12.5c6.9,0,12.5,5.6,12.5,12.5S606.4,655,599.5,655z
				 M599.5,634c-4.7,0-8.5,3.8-8.5,8.5s3.8,8.5,8.5,8.5c4.7,0,8.5-3.8,8.5-8.5S604.2,634,599.5,634z"/>
		</g>
	</g>
	<g id="jib-interaction-point_2_">
		<circle class="st20" cx="1096.5" cy="272.5" r="6"/>
		<g>
			<path class="st21" d="M1096.5,285c-6.9,0-12.5-5.6-12.5-12.5s5.6-12.5,12.5-12.5s12.5,5.6,12.5,12.5S1103.4,285,1096.5,285z
				 M1096.5,264c-4.7,0-8.5,3.8-8.5,8.5s3.8,8.5,8.5,8.5s8.5-3.8,8.5-8.5S1101.2,264,1096.5,264z"/>
		</g>
	</g>
</g>
</svg>
