<?xml version="1.0" encoding="utf-8"?>
<?xml-stylesheet type="text/css" href="../../css/graphics.css"?> 
<!-- Generator: Adobe Illustrator 16.0.0, SVG Export Plug-In . SVG Version: 6.00 Build 0)  -->
<!DOCTYPE svg PUBLIC "-//W3C//DTD SVG 1.1//EN" "http://www.w3.org/Graphics/SVG/1.1/DTD/svg11.dtd">
<svg version="1.1" xmlns="http://www.w3.org/2000/svg" xmlns:xlink="http://www.w3.org/1999/xlink" x="0px" y="0px" width="2000px"
	 height="800px" viewBox="0 0 2000 800" style="enable-background:new 0 0 2000 800;" xml:space="preserve">
<g id="sea-behind">
	<path class="st22" d="M2011.374,636.856c-35.358,26.438-85.444-24.983-130.403-5.31c-14.717,6.439-69.404,37.31-92.021,26.549
		c-133.716-63.621-123.308,20.956-189.559-13.189c-90.46-46.623-98.869,49.383-218.69-6.837
		c-47.768-22.413-97.572,14.371-145.525,15.936c-71.277,2.326-87.052-50.174-137.35-21.588
		c-18.466,10.494-74.826,16.451-97.826-0.983c-23-17.434-68.391-35.877-123.625,5.423c-35.359,26.438-85.445-24.983-130.403-5.31
		c-14.718,6.439-69.405,37.31-92.021,26.549c-133.716-63.621-123.309,20.956-189.559-13.189
		c-90.46-46.623-98.869,49.383-218.691-6.837c-47.768-22.413-97.572,14.371-145.524,15.936
		c-71.278,2.326-87.052-50.174-137.35-21.588c-18.465,10.494-60.249,17.598-82.518,2.826c-4.228-2.805-9.62-5.307-15.309-7.019
		v221.957h2270V631.434C2120.486,622.889,2066.609,595.557,2011.374,636.856z"/>
	<path class="st23" d="M1946.33,663.25c-110.941-44.875-90.686,9.1-173.277,9.1c-43.944,0-108.603-41.481-135.5-27.331
		c-86.243,45.371-107.281,5.43-161.402-2.479c-46.469-6.79-87.643,33.239-122.398,29.057c-50.361-6.06-85.821-47.448-147.88-18.754
		c-53.314,24.652-109.023,27.003-162.948,11.01c-16.633-4.933-27.924-4.588-42.924,4.28c-15,8.867-107.428,27.979-188.67-4.883
		c-110.941-44.875-90.686,9.1-173.277,9.1c-43.944,0-108.603-41.481-135.5-27.331c-86.243,45.371-107.281,5.43-161.402-2.479
		c-46.469-6.79-87.643,33.239-122.398,29.057c-50.361-6.06-85.822-47.448-147.88-18.754
		c-53.314,24.652-109.023,27.003-162.948,11.01c-16.632-4.933-26.726-5.509-42.924,4.28v182.455h2270V631.434
		C2095.363,598.756,2027.572,696.112,1946.33,663.25z"/>
</g>
<g id="boat-evel">
	<g id="boat" class="boat-surfs">
		<g id="mast">
			<path class="st19" d="M1037.674,614.614h-12.531l1.104-576.077l-11.867-1.217l0.084-1.999l11.788-0.081
				c4.282-0.005,4.123-0.005,8.405,0l3.332,579.374H1037.674L1037.674,614.614z"/>
			<path class="st13" d="M1038.197,615.726h-13.055c-0.614,0-1.11-0.498-1.11-1.111l0.004-0.101l1.363-574.977l-11.132-1.115
				c-0.596-0.061-1.034-0.585-0.994-1.179l0.083-1.966c0.024-0.606,0.532-1.081,1.139-1.063c5.323-0.036,10.639-0.081,15.96-0.084
				l4.202,0.004c0.608,0,1.104,0.493,1.105,1.102l3.856,579.375c0.002,0.609-0.492,1.108-1.104,1.11l-0.005,0.005H1038.197
				L1038.197,615.726z M1026.249,613.504h11.149l-3.842-577.158c-5.721-0.006-11.432,0.029-17.154,0.068l10.219,1.021
				c0.557,0.058,0.993,0.529,0.993,1.102L1026.249,613.504L1026.249,613.504z"/>
			<polygon class="st13" points="1017.431,35.787 730.652,654.293 726.99,656.328 1015.071,35.089 1017.431,35.787 			"/>
			<polygon class="st18" points="1025.213,570.759 1018.098,570.759 1018.098,576.145 1025.213,576.145 1025.213,570.759 			"/>
			<path class="st13" d="M1024.103,571.869h-4.894v3.164h4.894V571.869L1024.103,571.869z M1018.098,569.648h7.115
				c0.612,0,1.11,0.498,1.11,1.11v5.386c0,0.613-0.498,1.111-1.11,1.111h-7.115c-0.614,0-1.11-0.498-1.11-1.111v-5.386
				C1016.987,570.146,1017.483,569.648,1018.098,569.648L1018.098,569.648z"/>
			<polygon class="st13" points="1026.418,229.74 934.276,606.586 931.95,606.43 1025.551,225.835 1026.418,229.74 			"/>
		</g>
		<g id="deckhouse">
			<path class="st15" d="M777.429,640.444l1.349-6.203l134.226-9.219l7.714-14.646c2.616-4.214,3.765-4.121,8.543-4.113
				c45.9,0.113,81.117-0.278,127.12,8.28c29.851,5.553,58.614,12.714,90.424,22.433
				C1034.014,645.289,884.001,644.731,777.429,640.444L777.429,640.444z"/>
			<path class="st13" d="M776.345,640.211l1.348-6.205c0.109-0.507,0.554-0.858,1.052-0.873l133.566-9.174l7.465-14.169
				c2.885-4.646,4.166-4.644,9.188-4.634l7.286,0.016c42.616,0.081,76.599,0.146,120.331,8.281
				c14.959,2.784,29.636,5.968,44.542,9.668c14.896,3.698,30.06,7.925,46.003,12.796c0.585,0.178,0.916,0.795,0.738,1.381
				c-0.138,0.451-0.536,0.75-0.98,0.781c-52.046,3.839-112.057,5.786-172.085,6.349c-70.015,0.658-140.018-0.569-197.413-2.877
				c-0.61-0.023-1.087-0.539-1.063-1.149C776.324,640.337,776.333,640.273,776.345,640.211L776.345,640.211z M779.685,635.291
				l-0.892,4.101c57.135,2.272,126.565,3.477,195.987,2.825c57.65-0.542,115.318-2.365,165.963-5.918
				c-13.79-4.126-27.059-7.774-40.15-11.025c-14.889-3.697-29.522-6.871-44.409-9.642c-43.55-8.102-77.438-8.167-119.935-8.247
				l-7.286-0.016c-4.027-0.01-5.063-0.01-7.288,3.565L914,625.508c-0.168,0.345-0.512,0.594-0.924,0.621L779.685,635.291
				L779.685,635.291z"/>
			<path class="st11" d="M964.032,615.838c12.85,0,49.435-0.804,68.647,4.134c3.515,0.903,7.63,2.006,10.332,3.389
				c2.521,1.287,3.535,3.693,0.377,3.722c-25.329,0.241-55.199,0.965-80.467,1.807c-0.822,0.026-1.591-0.681-1.5-1.5l1.11-10.051
				C962.624,616.518,963.208,615.838,964.032,615.838L964.032,615.838z"/>
			<path class="st13" d="M964.032,614.728c2.146,0,3.416-0.008,4.85-0.016c15.626-0.086,46.764-0.26,64.071,4.188
				c1.801,0.463,3.748,0.975,5.526,1.527c1.85,0.575,3.611,1.22,5.036,1.949c1.21,0.617,2.15,1.487,2.602,2.318
				c0.26,0.479,0.385,0.968,0.346,1.433c-0.044,0.565-0.3,1.06-0.797,1.44c-0.491,0.378-1.236,0.612-2.269,0.622
				c-12.106,0.115-25.269,0.341-38.477,0.638c-14.353,0.321-28.774,0.728-41.965,1.167c-0.124,0.005-0.244,0-0.353-0.013H962.6
				c-0.593-0.064-1.149-0.343-1.561-0.751c-0.429-0.424-0.709-0.997-0.73-1.637c-0.003-0.111,0-0.22,0.012-0.322l1.11-10.056
				c0.074-0.673,0.365-1.295,0.815-1.746C962.705,615.011,963.318,614.728,964.032,614.728L964.032,614.728z M968.892,616.925
				l-4.859,0.024c-0.084,0-0.159,0.035-0.216,0.091c-0.098,0.099-0.163,0.248-0.182,0.419l-1.113,10.066
				c0.002,0.04,0.033,0.089,0.079,0.136c0.064,0.064,0.151,0.108,0.242,0.118l0.044,0.002c13.156-0.438,27.585-0.844,41.992-1.168
				c13.195-0.295,26.362-0.521,38.501-0.636c0.41-0.004,0.686-0.047,0.847-0.117l-0.053-0.107c-0.255-0.47-0.854-0.993-1.664-1.408
				c-1.277-0.652-2.928-1.253-4.689-1.8c-1.831-0.569-3.701-1.063-5.413-1.502C1015.376,616.666,984.424,616.839,968.892,616.925
				L968.892,616.925z"/>
		</g>
		<g id="mainsail">
			<path class="st14" d="M1026.563,569.974V58.302h-10.85c-31.89,49.733-56.934,106.656-81.575,160.464
				c-48.949,106.88-93.71,223.151-135.819,351.208H1026.563L1026.563,569.974z"/>
			<polygon class="st6" points="1015.831,58.081 1026.556,58.81 1026.347,73.492 1009.166,69.223 1015.831,58.081 			"/>
			<path class="st16" d="M844.432,441.424l-2.004,4.266l86.61,17.941c1.402,0.31,1.674,0.159,1.852-0.653
				c0.048-0.205,0.102-0.512,0.163-0.86l0.03-0.172c0.105-0.593,0.184-1.076,0.206-1.457c0.02-0.332,0-0.583-0.078-0.77
				c-0.047-0.109-0.107-0.204-0.216-0.28c-0.15-0.104-0.388-0.197-0.767-0.282L844.432,441.424L844.432,441.424z M841.127,445.854
				l2.675-5.691l86.656,17.911c0.542,0.12,0.909,0.271,1.175,0.458c0.308,0.218,0.475,0.468,0.598,0.758
				c0.152,0.358,0.195,0.769,0.165,1.263c-0.026,0.448-0.109,0.962-0.219,1.584l-0.03,0.172c-0.058,0.326-0.107,0.61-0.173,0.907
				c-0.368,1.678-0.837,2.009-3.165,1.498l-87.979-18.226L841.127,445.854L841.127,445.854z M885.238,333.498l-1.795,4.424
				l65.918,14.301c1.406,0.313,1.678,0.163,1.856-0.649c0.046-0.207,0.099-0.512,0.161-0.862l0.03-0.171
				c0.104-0.593,0.184-1.077,0.206-1.458c0.02-0.331,0-0.583-0.078-0.767c-0.048-0.112-0.11-0.208-0.218-0.283
				c-0.149-0.106-0.39-0.2-0.771-0.284L885.238,333.498L885.238,333.498z M882.167,338.116l2.396-5.901l66.219,14.452
				c0.545,0.123,0.912,0.275,1.177,0.461c0.309,0.218,0.476,0.467,0.599,0.756c0.152,0.359,0.194,0.768,0.165,1.266
				c-0.027,0.447-0.109,0.961-0.22,1.583l-0.03,0.171c-0.058,0.325-0.107,0.612-0.174,0.909c-0.37,1.677-0.838,2.008-3.171,1.495
				l-67.208-14.581L882.167,338.116L882.167,338.116z M958.172,167.563l-2.005,4.265l40.869,8.38
				c1.029,0.227,1.664,0.307,2.013,0.127c0.311-0.16,0.488-0.631,0.646-1.522c0.105-0.592,0.179-1.11,0.196-1.53
				c0.015-0.376-0.009-0.67-0.09-0.861c-0.045-0.112-0.107-0.206-0.216-0.283c-0.149-0.105-0.387-0.198-0.766-0.283L958.172,167.563
				L958.172,167.563z M954.866,171.995l2.675-5.69l41.508,8.47c0.542,0.12,0.909,0.272,1.175,0.459
				c0.306,0.216,0.474,0.466,0.597,0.755c0.15,0.353,0.198,0.803,0.176,1.338c-0.02,0.491-0.099,1.054-0.209,1.676
				c-0.223,1.26-0.551,1.966-1.231,2.317c-0.64,0.33-1.477,0.255-2.759-0.027l-42.229-8.663L954.866,171.995L954.866,171.995z
				 M922.288,249.755l-2.001,4.259l50.287,9.885c1.403,0.31,1.675,0.16,1.854-0.652c0.046-0.207,0.101-0.511,0.162-0.862
				l0.029-0.171c0.104-0.594,0.184-1.077,0.207-1.458c0.019-0.332,0-0.584-0.079-0.77c-0.047-0.11-0.108-0.204-0.217-0.28
				c-0.148-0.105-0.385-0.197-0.761-0.282L922.288,249.755L922.288,249.755z M918.982,254.188l2.673-5.688l50.34,9.842
				c0.541,0.12,0.908,0.271,1.173,0.458c0.308,0.218,0.476,0.467,0.599,0.758c0.151,0.358,0.195,0.768,0.165,1.263
				c-0.026,0.448-0.109,0.961-0.219,1.583l-0.03,0.171c-0.058,0.327-0.108,0.611-0.174,0.909c-0.37,1.675-0.837,2.007-3.16,1.497
				l-51.668-10.153L918.982,254.188L918.982,254.188z"/>
			<path class="st16" d="M846.175,433.664l181.161,36.516l-0.216,1.084l-181.163-36.516L846.175,433.664L846.175,433.664z
				 M862.083,391.512l164.586,32.682l-0.214,1.09L861.87,392.601L862.083,391.512L862.083,391.512z M974.563,134.031l53.691,10.795
				l-0.217,1.085l-53.693-10.795L974.563,134.031L974.563,134.031z M934.235,218.221l91.761,16.68l-0.194,1.089l-91.763-16.68
				L934.235,218.221L934.235,218.221z M897.832,301.285l128.09,25.648l-0.218,1.089l-128.09-25.647L897.832,301.285L897.832,301.285
				z M830.197,476.495l196.473,39.367l-0.218,1.091l-196.473-39.368L830.197,476.495L830.197,476.495z M954.721,176.161
				l72.118,14.385l-0.218,1.089l-72.117-14.384L954.721,176.161L954.721,176.161z M915.628,259.771l110.454,20.929l-0.204,1.09
				l-110.454-20.929L915.628,259.771L915.628,259.771z M881.037,344.269l145.549,28.645l-0.213,1.089l-145.549-28.645
				L881.037,344.269L881.037,344.269z M814.082,522.714l220.144,42.786l-0.209,1.09l-220.143-42.787L814.082,522.714
				L814.082,522.714z"/>
			<polygon class="st13" points="800.874,577.074 803.414,576.656 807.817,631.135 805.277,631.553 800.874,577.074 			"/>
			<path class="st13" d="M1025.452,568.863V59.413h-9.133c-28.784,45.001-51.997,95.878-74.397,144.976
				c-2.266,4.967-4.524,9.916-6.778,14.837c-24.463,53.415-47.882,109.183-70.447,167.602
				c-22.388,57.956-43.94,118.537-64.845,182.036H1025.452L1025.452,568.863z M1027.672,58.302v511.671
				c0,0.614-0.497,1.11-1.109,1.11H798.318c-0.113-0.002-0.229-0.02-0.342-0.057c-0.583-0.188-0.901-0.814-0.712-1.396
				c21.054-64.028,42.779-125.13,65.366-183.601c22.578-58.451,46.015-114.259,70.5-167.724c2.254-4.921,4.512-9.871,6.777-14.837
				c22.513-49.343,45.843-100.48,74.833-145.705c0.189-0.341,0.554-0.573,0.972-0.573h10.85
				C1027.175,57.191,1027.672,57.688,1027.672,58.302L1027.672,58.302z"/>
			<polygon class="st2" points="795.252,569.974 1018.098,569.974 1018.098,576.931 795.252,576.931 795.252,569.974 			"/>
			<path class="st13" d="M799.147,568.863h218.95c0.613,0,1.111,0.497,1.111,1.11v8.067c0,0.612-0.498,1.11-1.111,1.11H798.542
				c-3.773,0-4.693-2.761-4.549-5.384C794.133,571.248,795.184,568.863,799.147,568.863L799.147,568.863z M1016.987,571.084H798.716
				c-1.853,0-2.521,1.393-2.563,2.816c-0.047,1.496,0.622,3.03,2.477,3.03h218.358V571.084L1016.987,571.084z"/>
			<path class="st7" d="M1020.047,63.233c1.152,0,2.085,0.933,2.085,2.085c0,1.151-0.933,2.085-2.085,2.085
				c-1.15,0-2.085-0.934-2.085-2.085C1017.962,64.166,1018.896,63.233,1020.047,63.233L1020.047,63.233z"/>
			<path class="st13" d="M1020.047,62.843c0.682,0,1.301,0.277,1.75,0.726c0.448,0.446,0.725,1.065,0.725,1.749
				c0,0.681-0.276,1.3-0.724,1.749l-0.002,0.002c-0.449,0.447-1.067,0.724-1.749,0.724c-0.683,0-1.302-0.277-1.75-0.725
				l-0.021-0.023c-0.434-0.447-0.702-1.057-0.702-1.727c0-0.684,0.276-1.303,0.724-1.75
				C1018.745,63.12,1019.364,62.843,1020.047,62.843L1020.047,62.843z M1021.246,64.119c-0.306-0.307-0.73-0.496-1.199-0.496
				c-0.467,0-0.892,0.189-1.198,0.496c-0.307,0.306-0.496,0.73-0.496,1.199c0,0.46,0.183,0.877,0.478,1.181l0.019,0.017
				c0.307,0.307,0.731,0.496,1.198,0.496c0.469,0,0.894-0.188,1.199-0.494c0.308-0.307,0.496-0.731,0.496-1.2
				C1021.742,64.85,1021.552,64.426,1021.246,64.119L1021.246,64.119z"/>
			<polygon class="st13" points="1025.859,39.562 1021.383,64.76 1020.289,64.569 1024.766,39.371 1025.859,39.562 			"/>
			<polygon class="st16" points="1010.411,68.856 1025.452,72.889 1025.452,74.159 1009.885,69.718 1010.411,68.856 			"/>
			<path class="st9" d="M844.117,440.793l-2.489,5.297l87.291,18.082c2.312,0.509,2.33,0.021,2.711-2.132
				c0.215-1.214,0.321-1.991,0.091-2.535c-0.17-0.401-0.454-0.686-1.382-0.892L844.117,440.793L844.117,440.793z M884.9,332.856
				l-2.22,5.469l66.563,14.441c2.312,0.51,2.33,0.022,2.711-2.13c0.216-1.215,0.323-1.991,0.092-2.536
				c-0.171-0.402-0.456-0.686-1.383-0.891L884.9,332.856L884.9,332.856z M957.856,166.935l-2.488,5.295l41.549,8.521
				c2.311,0.51,2.943,0.31,3.324-1.842c0.215-1.215,0.301-2.159,0.069-2.703c-0.17-0.401-0.454-0.686-1.381-0.891L957.856,166.935
				L957.856,166.935z M921.973,249.127l-2.488,5.295l50.971,10.017c2.311,0.51,2.33,0.022,2.711-2.13
				c0.215-1.215,0.322-1.993,0.091-2.537c-0.171-0.402-0.455-0.686-1.382-0.891L921.973,249.127L921.973,249.127z"/>
		</g>
		<g id="jib">
			<path class="st14" d="M1010.22,600.165c35.654-137.573,54.043-323.025,45.277-440.704
				c38.508,123.676,98.418,329.323,136.926,453.001C1141.52,610.845,1057.241,603.075,1010.22,600.165L1010.22,600.165z"/>
			<path class="st16" d="M1037.573,465.349c17.79-0.915,35.603-2.138,53.441-3.692c17.848-1.556,35.663-3.44,53.44-5.687
				l0.139,1.098c-17.863,2.256-35.69,4.144-53.482,5.696c-17.802,1.551-35.63,2.771-53.481,3.692L1037.573,465.349L1037.573,465.349
				z M1010.509,599.806l40.466-38.551l-31.447,0.858l-0.025-1.105l32.67-0.895l56.123-53.468c-12.2,2.013-24.675,3.56-37.449,4.599
				c-13.386,1.091-27.119,1.625-41.227,1.559l0.004-1.105c14.05,0.066,27.752-0.469,41.137-1.559
				c13.314-1.084,26.294-2.718,38.966-4.855l38.741-36.908l0.765,0.803l-38.731,36.898c-2.795,16.5-5.569,33.247-8.345,49.992
				c-2.798,16.893-5.599,33.787-8.376,50.18l-1.093-0.183c2.806-16.559,5.591-33.367,8.375-50.175
				c2.706-16.33,5.413-32.659,8.099-48.537l-56.27,53.605l-11.384,40.676l-1.067-0.296l10.885-38.887l-40.052,38.156
				L1010.509,599.806L1010.509,599.806z M1139.641,609.635l17.514-111.611l1.093,0.169l-17.514,111.613L1139.641,609.635
				L1139.641,609.635z M1045.821,415.628c7.853-0.62,15.583-1.163,23.22-1.699c20.694-1.453,40.688-2.857,62.172-5.773l0.147,1.098
				c-21.541,2.922-41.543,4.328-62.247,5.781c-7.576,0.531-15.247,1.071-23.204,1.699L1045.821,415.628L1045.821,415.628z
				 M1058.14,233.436c3.12-0.377,6.386-0.734,9.813-1.067c3.417-0.332,6.924-0.633,10.529-0.899l0.076,1.106
				c-3.66,0.271-7.156,0.571-10.502,0.896c-3.336,0.323-6.596,0.68-9.787,1.066L1058.14,233.436L1058.14,233.436z M1054.159,323.272
				c8.511-0.089,16.991-0.43,25.434-1.077c8.435-0.646,16.804-1.596,25.091-2.903l0.171,1.094c-8.346,1.315-16.741,2.27-25.18,2.917
				c-8.434,0.646-16.94,0.987-25.507,1.076L1054.159,323.272L1054.159,323.272z M1057.718,188.589l7.554-0.61l0.088,1.106
				l-7.554,0.61L1057.718,188.589L1057.718,188.589z M1056.863,278.386c11.745-0.781,22.211-1.848,32.021-2.847l2.717-0.276
				l0.109,1.102l-2.718,0.276c-9.836,1.001-20.328,2.071-32.061,2.851L1056.863,278.386L1056.863,278.386z M1050.092,368.692
				l67.711-5.334l0.086,1.107l-67.709,5.334L1050.092,368.692L1050.092,368.692z"/>
			<path class="st13" d="M1009.16,599.837c17.666-68.179,31.091-148.13,39.065-225.753c8.101-78.855,10.579-155.298,6.167-214.54
				c-0.046-0.611-0.625-5.378-0.014-5.423c0.538-0.04,2.053,4.546,2.189,5.048l136.594,452.914c0.183,0.584,0.175,1.257-0.411,1.439
				c-0.146,0.045-0.293,0.059-0.436,0.045c-32.798-1.044-79.255-4.622-120.751-7.818c-23.119-1.779-44.702-3.443-61.41-4.477
				c-0.611-0.036-1.078-0.561-1.042-1.172C1009.117,600.008,1009.134,599.92,1009.16,599.837L1009.16,599.837z M1050.43,374.309
				c-7.937,77.251-21.269,156.815-38.805,224.834c16.676,1.048,37.664,2.664,60.104,4.393c40.901,3.149,86.62,6.672,119.171,7.77
				c-46.008-147.895-87.747-297.151-133.56-445C1060.854,224.233,1058.122,299.438,1050.43,374.309L1050.43,374.309z"/>
			<polygon class="st13" points="1010.575,601.165 918.426,638.15 918.343,636.419 1009.867,599.226 1010.575,601.165 			"/>
			<polygon class="st13" points="1195.009,624.992 1034.612,91.869 1036.063,87.475 1196.862,624.359 1195.009,624.992 			"/>
		</g>
		<g id="lifeline">
			<path class="st13" d="M855.435,613.335l1.494,24.396c0.071,1.209-0.843,2.25-2.048,2.339l-1.33,0.103
				c-0.093,0.006-0.186,0.008-0.276,0.002l-0.73,0.017c-1.192,0.024-2.185-0.901-2.253-2.083h-0.003l-1.497-24.443
				c-0.071-1.211,0.843-2.25,2.048-2.34l2.213-0.168c1.222-0.091,2.286,0.825,2.378,2.048L855.435,613.335L855.435,613.335z
				 M1192.247,623.948l3.011-17.633c-2.705,0.131-5.646,0.284-8.595,0.438c-3.53,0.185-7.077,0.369-10.649,0.533
				c-1.366,0.062-2.336,0.105-2.88,0.355c-0.429,0.196-0.824,0.679-1.332,1.686l-6.366,17.502c-0.314,0.866-1.11,1.417-1.977,1.459
				l-2.385,0.13c-1.223,0.062-2.265-0.878-2.325-2.1c-0.017-0.325,0.037-0.637,0.149-0.922l6.796-18.682
				c0.027-0.079,0.059-0.154,0.095-0.227c1.317-2.662,2.6-4.062,4.3-4.877c1.632-0.781,3.294-0.857,5.641-0.964
				c3.274-0.15,6.927-0.341,10.563-0.53c3-0.156,5.993-0.313,8.998-0.455c1.055-0.052,1.922-0.069,2.7,0.047
				c1.073,0.163,1.951,0.547,2.725,1.315c0.768,0.764,1.191,1.684,1.327,2.892c0.099,0.881,0.025,1.927-0.186,3.233l-0.005,0.025
				h0.005l-2.969,17.388c-0.183,1.072-1.11,1.835-2.162,1.846l-2.172,0.125c-1.223,0.068-2.269-0.869-2.335-2.092
				C1192.211,624.273,1192.221,624.108,1192.247,623.948L1192.247,623.948z M1059.354,607.088l1.471,24.029
				c0.072,1.223-0.861,2.271-2.083,2.343l-2.251,0.097c-1.21,0.051-2.236-0.878-2.306-2.083l-1.477-24.058
				c-0.07-1.21,0.845-2.25,2.05-2.34l2.212-0.168c1.222-0.09,2.287,0.826,2.377,2.049L1059.354,607.088L1059.354,607.088z
				 M952.729,610.753l1.493,24.395c0.071,1.21-0.844,2.25-2.048,2.341l-0.374,0.029c-0.082,0.006-0.162,0.008-0.242,0.005
				l-1.696,0.054c-1.201,0.037-2.21-0.889-2.279-2.082l-1.498-24.413c-0.07-1.209,0.844-2.25,2.048-2.34l2.214-0.167
				c1.222-0.091,2.286,0.826,2.377,2.048L952.729,610.753L952.729,610.753z M744.698,622.772l3.409,16.593
				c0.026,0.134,0.042,0.273,0.043,0.416c0.014,1.223-0.964,2.224-2.186,2.239l-2.138,0.026c-1.084,0.069-2.083-0.666-2.311-1.76
				l-3.511-16.592l-0.018-0.104c-0.106-0.662-0.144-1.313-0.113-1.937c0.073-1.534,0.547-2.944,1.394-4.057
				c0.907-1.189,2.204-2.014,3.865-2.28c0.445-0.072,0.912-0.101,1.397-0.084l10.009-0.424c0.077-0.004,0.157-0.004,0.236-0.002
				c2.347,0.106,4.007,0.182,5.641,0.964c1.677,0.805,2.946,2.179,4.244,4.77c0.058,0.103,0.108,0.211,0.149,0.324l6.554,17.859
				l-0.005,0.002c0.084,0.229,0.132,0.478,0.135,0.736c0.014,1.222-0.966,2.225-2.187,2.238l-2.169,0.031
				c-0.974,0.086-1.922-0.484-2.274-1.446l-6.172-16.817c-0.502-0.994-0.896-1.473-1.321-1.667
				c-0.533-0.245-1.472-0.293-2.793-0.353l-9.813,0.415c-0.046,0.147-0.072,0.323-0.082,0.507
				C744.678,622.515,744.683,622.65,744.698,622.772L744.698,622.772z"/>
			<g>
				<polygon class="st13" points="1168.02,605.895 762.098,619.305 762.028,617.093 1167.95,603.682 1168.02,605.895 				"/>
				<path class="st2" d="M853.216,613.369l1.5,24.491l-1.329,0.099l-0.887,0.02l-1.496-24.444L853.216,613.369L853.216,613.369z
					 M1194.432,624.321l3.051-17.866c0.233-1.438,0.278-2.121,0.108-2.29c-0.157-0.157-0.881-0.137-2.092-0.078
					c-6.331,0.302-13.247,0.696-19.579,0.987c-3.24,0.146-4.589,0.207-6.155,3.376l-6.411,17.624l-2.392,0.131l6.815-18.736
					c2.146-4.341,3.879-4.42,8.046-4.607c6.33-0.291,13.243-0.686,19.572-0.987c1.826-0.087,2.963-0.07,3.759,0.72
					c0.78,0.776,0.873,1.992,0.516,4.208l-2.969,17.388L1194.432,624.321L1194.432,624.321z M1057.135,607.121l1.479,24.125
					l-2.218,0.098l-1.474-24.058L1057.135,607.121L1057.135,607.121z M950.511,610.786l1.499,24.491l-0.373,0.027l-1.844,0.059
					l-1.495-24.41L950.511,610.786L950.511,610.786z M745.938,639.808l-3.421-16.65c-0.238-1.483,0.341-3.568,1.9-3.493l10.167-0.43
					c3.24,0.146,4.589,0.208,6.155,3.377l6.207,16.913l2.333-0.034l-6.553-17.86c-2.146-4.341-3.88-4.42-8.047-4.608l-10.158,0.43
					c-3.293-0.157-4.86,2.607-4.348,5.793l3.511,16.591L745.938,639.808L745.938,639.808z"/>
			</g>
		</g>
		<g id="hull">
			<path class="st21" d="M732.008,655.434h22.437c2.382,0,4.628,1.976,4.238,4.333l-8.932,53.977
				c-0.39,2.356-2.045,4.333-4.425,4.333h-14.66c-2.382,0-4.291-1.95-4.239-4.333l1.157-53.977
				C727.635,657.384,729.626,655.434,732.008,655.434L732.008,655.434z"/>
			<path class="st13" d="M732.008,654.323h22.437c0.29,0,0.592,0.025,0.897,0.077c1.188,0.197,2.298,0.775,3.11,1.599
				c0.849,0.859,1.385,1.983,1.385,3.232h-0.004c0,0.239-0.019,0.479-0.058,0.713l-8.932,53.979
				c-0.24,1.454-0.896,2.796-1.877,3.756c-0.951,0.93-2.189,1.508-3.641,1.508h-14.66l-0.114-0.006
				c-1.458-0.03-2.766-0.638-3.708-1.601c-0.944-0.965-1.524-2.287-1.524-3.741c0-17.869,0.774-36.184,1.157-54.095
				c0.032-1.493,0.669-2.85,1.668-3.828C729.149,654.935,730.518,654.323,732.008,654.323L732.008,654.323z M754.444,656.544
				h-22.437c-0.892,0-1.711,0.365-2.31,0.952c-0.604,0.592-0.989,1.403-1.009,2.291l-1.158,54.056
				c0.002,0.849,0.342,1.62,0.893,2.184s1.313,0.92,2.157,0.941l14.745-0.002c0.831,0,1.541-0.333,2.086-0.866
				c0.645-0.63,1.08-1.535,1.245-2.533l8.932-53.979c0.021-0.127,0.031-0.245,0.031-0.355h-0.004c0-0.632-0.289-1.219-0.742-1.679
				c-0.491-0.495-1.164-0.846-1.889-0.966C754.818,656.56,754.637,656.544,754.444,656.544L754.444,656.544z"/>
			<path class="st21" d="M947.164,781.414l0.03-0.713l7.396-95.278h76.635l-16.402,90.771c-0.166,1.069-0.319,2.242-0.284,3.359
				c14.846,2.532,7.811,10.478-10.866,10.478c-27.489,0-72.263-2.517-72.263-5.622C931.409,783.308,937.885,782.281,947.164,781.414
				L947.164,781.414z"/>
			<path d="M948.16,780.773l-0.066,1.523l-0.843,0.079c-4.836,0.451-8.905,0.946-11.681,1.475c-2.022,0.384-3.192,0.524-3.192,0.558
				c0,0.774,8.894,1.779,21.069,2.726c15.173,1.181,35.258,1.926,50.225,1.926c7.949,0,13.684-1.438,16.41-3.261
				c0.791-0.529,1.282-1.057,1.446-1.547c0.12-0.361,0.023-0.746-0.308-1.128c-0.897-1.035-3.111-1.98-6.845-2.616l-0.778-0.134
				l-0.024-0.791c-0.02-0.604,0.012-1.216,0.07-1.818c0.056-0.586,0.138-1.166,0.225-1.719l16.2-89.654h-74.583L948.16,780.773
				L948.16,780.773z M946.237,780.531l7.456-96.078h78.688l-16.606,91.9c-0.08,0.513-0.156,1.051-0.207,1.594
				c-0.027,0.266-0.047,0.532-0.059,0.799c3.733,0.726,6.074,1.845,7.173,3.113c0.813,0.94,1.023,1.962,0.678,3
				c-0.302,0.908-1.051,1.773-2.203,2.546c-3.005,2.009-9.138,3.595-17.485,3.595c-14.993,0-35.136-0.749-50.368-1.934
				c-13.213-1.028-22.864-2.606-22.864-4.658c0-1.079,1.75-1.884,4.775-2.459C937.867,781.445,941.691,780.969,946.237,780.531
				L946.237,780.531z"/>
			<path class="st15" d="M774.223,679.683c-14.809-3.702-44.057-7.404-58.866-11.106l27.906-27.629
				c153.627-1.917,294.505-6.393,454.124-15.688l-8.884,54.423C1068.068,699.407,939.285,708.636,774.223,679.683L774.223,679.683z"
				/>
			<path class="st21" d="M774.223,679.683c-5.7-1.426-13.542-2.851-21.874-4.275h436.853l-0.698,4.275
				C1068.068,699.407,939.285,708.636,774.223,679.683L774.223,679.683z"/>
			<path class="st8" d="M762.441,677.097c-5.56-0.67-11.699-1.342-17.834-2.013h445.922c-0.705,0.669-1.43,1.34-2.175,2.013H762.441
				L762.441,677.097z"/>
			<path class="st20" d="M737.125,646.935c76.736,0.045,153.055-1.412,229.462-3.839c76.371-2.425,152.864-5.821,229.97-9.655
				l0.104,2.213c-77.07,3.832-153.56,7.228-230.004,9.655c-76.409,2.427-152.747,3.884-229.532,3.839V646.935L737.125,646.935z"/>
			<path class="st13" d="M773.917,680.749c-7.37-1.84-18.341-3.684-29.31-5.526c-11.04-1.855-22.082-3.712-29.52-5.571
				c-0.594-0.147-0.956-0.751-0.808-1.345c0.057-0.227,0.178-0.418,0.34-0.562l27.861-27.583c0.224-0.224,0.52-0.329,0.813-0.322
				c76.775-0.957,150.38-2.556,224.748-5.076c74.334-2.52,149.449-5.961,229.282-10.61c0.611-0.034,1.135,0.436,1.167,1.046
				c0.005,0.088,0,0.175-0.015,0.259l-8.881,54.401c-0.08,0.492-0.472,0.854-0.94,0.92c-60.25,9.868-122.597,17.109-190.541,18.264
				c-67.958,1.154-141.49-3.779-224.083-18.268L773.917,680.749L773.917,680.749z M744.972,673.036
				c11.017,1.851,22.032,3.703,29.47,5.557c82.458,14.463,155.842,19.39,223.64,18.238c67.518-1.147,129.524-8.324,189.457-18.114
				l8.532-52.271c-79.271,4.604-153.971,8.022-227.958,10.529c-74.221,2.516-147.715,4.112-224.387,5.072l-26.175,25.915
				C724.836,669.651,734.904,671.344,744.972,673.036L744.972,673.036z"/>
			<path d="M946.238,781.224c7.916-0.763,18.037-1.406,27.959-1.876c11.251-0.531,22.238-0.838,29.475-0.838
				c2.059,0,3.945,0.063,5.662,0.177c1.8,0.118,3.409,0.297,4.836,0.522l-0.151,0.954c-1.388-0.219-2.967-0.394-4.744-0.511
				c-1.682-0.112-3.545-0.173-5.603-0.173c-7.259,0-18.229,0.305-29.429,0.834c-9.917,0.469-20.022,1.112-27.914,1.872
				L946.238,781.224L946.238,781.224z"/>
		</g>
		<g id="spinnaker">
			<path class="st5" d="M1281.395,589.261c-6.996-22.684-99.987-29.193-218.578-8.164c79.7-158.084,102.557-293.401-17.963-484.985
				C1259.995,153.017,1296.026,380.945,1281.395,589.261L1281.395,589.261z"/>
			<path class="st13" d="M1280.286,589.567c-3.49-11.182-29.578-18.277-70.109-19.792c-38.479-1.437-89.813,2.285-147.163,12.456
				c-0.627,0.108-1.224-0.311-1.333-0.937c-0.049-0.276,0.007-0.547,0.138-0.773c39.76-78.874,65.341-152.056,65.951-229.363
				c0.611-77.319-23.755-158.843-83.887-254.435c-0.339-0.538-0.178-1.247,0.359-1.585c0.281-0.176,0.607-0.216,0.904-0.138
				c107.989,28.563,171.021,100.036,205.218,190.502c34.139,90.313,39.503,199.539,32.179,303.834
				c-0.043,0.634-0.591,1.113-1.227,1.071C1280.818,590.375,1280.414,590.025,1280.286,589.567L1280.286,589.567z M1210.258,567.48
				c37.176,1.39,62.595,7.679,70.262,17.711c6.892-102.807,1.264-210.074-32.307-298.879
				c-33.646-89.009-95.404-159.485-200.83-188.321c59.245,94.919,83.291,176.103,82.682,253.185
				c-0.607,77.076-25.86,149.984-65.196,228.392C1121.453,569.672,1172.119,566.058,1210.258,567.48L1210.258,567.48z"/>
			<path class="st3" d="M1112,463.413c35.113-7.672,65.91-10.564,93.933-9.673c28.03,0.894,53.277,5.575,77.285,13.052l-0.287,0.924
				c-23.933-7.453-49.096-12.119-77.027-13.01c-27.939-0.89-58.658,1.998-93.7,9.653L1112,463.413L1112,463.413z M1078.427,152.238
				c8.878-4.893,18.708-8.21,28.875-10.197c11.14-2.177,22.689-2.757,33.841-2.067l-0.057,0.965
				c-11.071-0.686-22.538-0.109-33.599,2.052c-10.074,1.969-19.81,5.253-28.595,10.095L1078.427,152.238L1078.427,152.238z
				 M1111.367,232.32c19.246-8.517,37.979-12.846,55.638-14.476c17.655-1.629,34.229-0.56,49.165,1.72l-0.145,0.958
				c-14.876-2.271-31.374-3.337-48.934-1.716c-17.558,1.621-36.187,5.927-55.334,14.4L1111.367,232.32L1111.367,232.32z
				 M1130.741,338.773c25.126-5.488,49.073-7.922,71.521-8.307c22.441-0.385,43.376,1.279,62.484,3.984l-0.132,0.958
				c-19.071-2.7-39.956-4.36-62.337-3.976c-22.378,0.383-46.261,2.812-71.332,8.289L1130.741,338.773L1130.741,338.773z"/>
			<polygon class="st13" points="1063.382,581.707 938.437,606.592 938.059,604.691 1063.005,579.806 1063.382,581.707 			"/>
			<polygon class="st13" points="1257.479,599.514 1202.091,606.773 1201.84,604.856 1257.229,597.599 1257.479,599.514 			"/>
			<path class="st5" d="M1281.284,588.965l0.054,0.603c-0.236,4.347-9.182,7.061-23.503,8.814
				c1.949-6.855-10.824-20.358-21.06-27.702C1262.24,573.866,1278.266,580.185,1281.284,588.965L1281.284,588.965z"/>
			<path class="st13" d="M1282.433,588.866l0.059,0.663l-0.006,0.098c-0.147,2.704-2.715,4.799-7.235,6.404
				c-4.142,1.472-10.039,2.607-17.276,3.494l-1.72,0.21l0.475-1.668c0.761-2.682-1.228-6.752-4.515-11.076
				c-4.217-5.548-10.539-11.379-16.109-15.376l-3.681-2.641l4.49,0.562c12.941,1.619,23.486,4.052,31.173,7.209
				c7.764,3.189,12.678,7.167,14.287,11.847l0.046,0.134L1282.433,588.866L1282.433,588.866z M1280.184,589.595l-0.032-0.383
				c-1.434-3.969-5.88-7.443-12.938-10.343c-6.625-2.721-15.49-4.896-26.283-6.465c4.738,3.824,9.611,8.597,13.111,13.201
				c3.143,4.135,5.195,8.191,5.134,11.446c6.405-0.838,11.621-1.878,15.31-3.188C1278.014,592.608,1280.031,591.2,1280.184,589.595
				L1280.184,589.595z"/>
			<polygon class="st13" points="1044.685,97.531 1034.444,88.587 1035.604,86.42 1045.972,95.406 1044.685,97.531 			"/>
		</g>
	</g>
</g>
<g id="sea-front">
	<path class="st12" d="M2133.231,678.807c-70.351-58.284-84.218,6.492-130-16.018c-26.147-12.856-59.509-18.338-83.493-1.385
		c-44.139,31.199-71.649,34.572-111.65-1.141c-77.123-68.857-96.911,67.156-210.179,3.813
		c-85.416-47.768-123.14,37.979-176.305,20.14c-119.475-40.088-163.332,31.624-243.517-12.547
		C1091.673,624.067,1034,759,868.231,662.789c-26.147-12.856-59.509-18.338-83.493-1.385c-44.14,31.199-71.649,34.572-111.649-1.141
		c-77.124-68.857-96.912,67.156-210.18,3.813c-85.416-47.768-123.139,37.979-176.305,20.14
		C167.13,644.129,123.272,715.841,43.087,671.67C-43.328,624.067-55.939,701.854-135,712.88v137.976h1135h1135V680.093
		C2134.252,679.588,2133.647,679.151,2133.231,678.807z"/>
	<path class="st4" d="M2119.691,698.615c-22.269,13.14-64.053,6.821-82.518-2.514c-50.298-25.428-66.072,21.271-137.351,19.203
		c-47.952-1.392-97.757-34.111-145.524-14.175c-119.821,50.008-128.23-35.391-218.69,6.081
		c-66.25,30.373-71.737-26.597-189.559,11.732c-23.573,7.668-79.07-6.22-93.787-11.948c-44.958-17.5-84.184,28.451-128.638,14.869
		C1041.128,696.659,1000,757,902.174,696.102c-50.298-25.428-66.072,21.271-137.35,19.203
		c-47.953-1.392-97.758-34.111-145.525-14.175c-119.821,50.008-128.23-35.391-218.69,6.081
		c-66.25,30.373-71.737-26.597-189.559,11.732c-23.573,7.668-79.07-6.22-93.787-11.948c-44.958-17.5-84.183,28.451-128.637,14.869
		C-93.872,696.659-120.486,717.91-135,725.51v125.346h1135h1135V692.372C2129.312,693.896,2123.92,696.121,2119.691,698.615z"/>
</g>
<g id="interaction-spots" class="interaction-spots">
	<circle id="trail-spot" class="st10" cx="600.418" cy="668.418" r="6.418"/>
	<circle id="rudder-spot" class="st10" cx="725.418" cy="698.418" r="6.418"/>
	<circle id="keel-spot" class="st10" cx="1019.418" cy="750.418" r="6.418"/>
	<circle id="jib-spot" class="st10" cx="1078.418" cy="298.418" r="6.418"/>
	<circle id="spinnaker-spot" class="st10" cx="1209.418" cy="247.418" r="6.418"/>
	<circle id="hull-spot" class="st10" cx="1192.418" cy="654.418" r="6.418"/>
	<circle id="mast-spot" class="st10" cx="1038.418" cy="67.418" r="6.418"/>
</g>
<g id="interaction-points" class="interaction-points">
	<line id="trail-line" class="st1" x1="643" y1="368" x2="600" y2="668"/>
	<line id="rudder-line" class="st1" x1="759.837" y1="336" x2="725.5" y2="698.5"/>
	<line id="jib-line" class="st1" x1="1371" y1="350.311" x2="1078.427" y2="298"/>
	<line id="spinnaker-line" class="st1" x1="1380" y1="187.979" x2="1209" y2="247"/>
	<line id="hull-line" class="st1" x1="1371" y1="553" x2="1192.5" y2="654.5"/>
	<line id="keel-line" class="st1" x1="1463.535" y1="590.411" x2="1018.5" y2="749.5"/>
	<line id="mast-line" class="st1" x2="1039" y2="66" x1="813.874" y1="126"/>
	<g id="spinnaker-interaction-point">
		<circle class="st0" cx="1380" cy="187.979" r="6.049"/>
		<g>
			<path class="st17" d="M1380,200.479c-6.893,0-12.5-5.607-12.5-12.5s5.607-12.5,12.5-12.5s12.5,5.607,12.5,12.5
				S1386.893,200.479,1380,200.479z M1380,179.511c-4.67,0-8.468,3.799-8.468,8.468s3.798,8.468,8.468,8.468
				c4.669,0,8.468-3.799,8.468-8.468S1384.669,179.511,1380,179.511z"/>
		</g>
	</g>
	<g id="mast-interaction-point">
		<circle class="st0" cx="813.874" cy="126" r="6.049"/>
		<g>
			<path class="st17" d="M813.874,138.5c-6.893,0-12.5-5.607-12.5-12.5s5.607-12.5,12.5-12.5s12.5,5.607,12.5,12.5
				S820.767,138.5,813.874,138.5z M813.874,117.532c-4.67,0-8.468,3.799-8.468,8.468s3.798,8.468,8.468,8.468
				s8.468-3.799,8.468-8.468S818.544,117.532,813.874,117.532z"/>
		</g>
	</g>
	<g id="hull-interaction-point">
		<circle class="st0" cx="1371" cy="553" r="6.049"/>
		<g>
			<path class="st17" d="M1371,565.5c-6.893,0-12.5-5.607-12.5-12.5s5.607-12.5,12.5-12.5s12.5,5.607,12.5,12.5
				S1377.893,565.5,1371,565.5z M1371,544.532c-4.67,0-8.468,3.799-8.468,8.468s3.798,8.468,8.468,8.468
				c4.669,0,8.468-3.799,8.468-8.468S1375.669,544.532,1371,544.532z"/>
		</g>
	</g>
	<g id="keel-interaction-point">
		<circle class="st0" cx="1463.535" cy="589.261" r="6.049"/>
		<g>
			<path class="st17" d="M1463.535,601.761c-6.893,0-12.5-5.607-12.5-12.5s5.607-12.5,12.5-12.5s12.5,5.607,12.5,12.5
				S1470.428,601.761,1463.535,601.761z M1463.535,580.793c-4.67,0-8.468,3.799-8.468,8.468s3.798,8.468,8.468,8.468
				s8.468-3.799,8.468-8.468S1468.205,580.793,1463.535,580.793z"/>
		</g>
	</g>
	<g id="rudder-interaction-point">
		<circle class="st0" cx="759.837" cy="336" r="6.049"/>
		<g>
			<path class="st17" d="M759.837,348.5c-6.893,0-12.5-5.607-12.5-12.5s5.607-12.5,12.5-12.5s12.5,5.607,12.5,12.5
				S766.729,348.5,759.837,348.5z M759.837,327.532c-4.67,0-8.468,3.799-8.468,8.468s3.798,8.468,8.468,8.468
				c4.669,0,8.468-3.799,8.468-8.468S764.506,327.532,759.837,327.532z"/>
		</g>
	</g>
	<g id="trail-interaction-point">
		<circle class="st0" cx="643" cy="368.858" r="6.049"/>
		<g>
			<path class="st17" d="M643,381.358c-6.893,0-12.5-5.607-12.5-12.5s5.607-12.5,12.5-12.5s12.5,5.607,12.5,12.5
				S649.893,381.358,643,381.358z M643,360.391c-4.67,0-8.468,3.799-8.468,8.468s3.798,8.468,8.468,8.468
				c4.669,0,8.468-3.799,8.468-8.468S647.669,360.391,643,360.391z"/>
		</g>
	</g>
	<g id="jib-interaction-point_2_">
		<circle class="st0" cx="1371" cy="350.31" r="6.049"/>
		<g>
			<path class="st17" d="M1371,362.81c-6.893,0-12.5-5.607-12.5-12.5s5.607-12.5,12.5-12.5s12.5,5.607,12.5,12.5
				S1377.893,362.81,1371,362.81z M1371,341.842c-4.67,0-8.468,3.799-8.468,8.468s3.798,8.468,8.468,8.468
				c4.669,0,8.468-3.799,8.468-8.468S1375.669,341.842,1371,341.842z"/>
		</g>
	</g>
</g>
</svg>
